<mxfile><diagram id="FQ6OiGbrcddsLU6k9kut" name="第 1 页"><mxGraphModel dx="2454" dy="1129" grid="1" gridSize="10" guides="1" tooltips="1" connect="1" arrows="1" fold="1" page="1" pageScale="1" pageWidth="827" pageHeight="1169" math="0" shadow="0"><root><mxCell id="0"/><mxCell id="1" parent="0"/><mxCell id="6" value="排期" style="swimlane;horizontal=0;swimlaneFillColor=default;startSize=23;" vertex="1" parent="1"><mxGeometry x="-190" y="20" width="1220" height="1500" as="geometry"/></mxCell><mxCell id="72" style="edgeStyle=none;html=1;exitX=0.5;exitY=1;exitDx=0;exitDy=0;" edge="1" parent="6" source="14" target="15"><mxGeometry relative="1" as="geometry"/></mxCell><mxCell id="14" value="五月第一周" style="rounded=1;whiteSpace=wrap;html=1;" vertex="1" parent="6"><mxGeometry x="61" y="350" width="120" height="60" as="geometry"/></mxCell><mxCell id="17" value="阿尔法工作台" style="swimlane;startSize=23;swimlaneFillColor=default;" vertex="1" parent="6"><mxGeometry x="266" y="10" width="200" height="1480" as="geometry"/></mxCell><mxCell id="147" style="edgeStyle=none;html=1;exitX=0.5;exitY=1;exitDx=0;exitDy=0;entryX=0.5;entryY=0;entryDx=0;entryDy=0;" edge="1" parent="17" source="86" target="83"><mxGeometry relative="1" as="geometry"/></mxCell><mxCell id="86" value="" style="rounded=0;whiteSpace=wrap;html=1;" vertex="1" parent="17"><mxGeometry x="24" y="30" width="146" height="180" as="geometry"/></mxCell><mxCell id="85" value="" style="rounded=0;whiteSpace=wrap;html=1;" vertex="1" parent="17"><mxGeometry x="24" y="1090" width="146" height="140" as="geometry"/></mxCell><mxCell id="149" style="edgeStyle=none;html=1;exitX=0.5;exitY=1;exitDx=0;exitDy=0;entryX=0.5;entryY=0;entryDx=0;entryDy=0;" edge="1" parent="17" source="84" target="85"><mxGeometry relative="1" as="geometry"/></mxCell><mxCell id="84" value="" style="rounded=0;whiteSpace=wrap;html=1;" vertex="1" parent="17"><mxGeometry x="24" y="930" width="146" height="100" as="geometry"/></mxCell><mxCell id="148" style="edgeStyle=none;html=1;exitX=0.5;exitY=1;exitDx=0;exitDy=0;" edge="1" parent="17" source="83" target="84"><mxGeometry relative="1" as="geometry"/></mxCell><mxCell id="83" value="" style="rounded=0;whiteSpace=wrap;html=1;" vertex="1" parent="17"><mxGeometry x="14" y="280" width="166" height="180" as="geometry"/></mxCell><mxCell id="19" value="优化阿尔法后台页面布局和代码结构" style="rounded=1;whiteSpace=wrap;html=1;" vertex="1" parent="17"><mxGeometry x="39" y="304" width="120" height="60" as="geometry"/></mxCell><mxCell id="22" value="开始优化作品编辑器" style="rounded=1;whiteSpace=wrap;html=1;" vertex="1" parent="17"><mxGeometry x="38" y="380" width="120" height="60" as="geometry"/></mxCell><mxCell id="26" value="后台数据结构优化,&amp;nbsp;&lt;br&gt;" style="rounded=1;whiteSpace=wrap;html=1;" vertex="1" parent="17"><mxGeometry x="40" y="50" width="120" height="60" as="geometry"/></mxCell><mxCell id="27" value="&lt;span&gt;优化后的数据接口的数据库搭建和api搭建&lt;/span&gt;" style="rounded=1;whiteSpace=wrap;html=1;" vertex="1" parent="17"><mxGeometry x="40" y="130" width="120" height="60" as="geometry"/></mxCell><mxCell id="12" value="开始优化新版微沙盘" style="rounded=1;whiteSpace=wrap;html=1;" vertex="1" parent="17"><mxGeometry x="40" y="950" width="120" height="60" as="geometry"/></mxCell><mxCell id="58" value="用户及权限系统搭建" style="rounded=1;whiteSpace=wrap;html=1;" vertex="1" parent="17"><mxGeometry x="40" y="1130" width="120" height="60" as="geometry"/></mxCell><mxCell id="23" value="作品编辑器" style="swimlane;" vertex="1" parent="6"><mxGeometry x="510" y="10" width="200" height="1480" as="geometry"/></mxCell><mxCell id="93" value="" style="rounded=0;whiteSpace=wrap;html=1;" vertex="1" parent="23"><mxGeometry x="17" y="720" width="166" height="180" as="geometry"/></mxCell><mxCell id="155" style="edgeStyle=none;html=1;exitX=0.5;exitY=1;exitDx=0;exitDy=0;entryX=0.5;entryY=0;entryDx=0;entryDy=0;" edge="1" parent="23" source="92" target="93"><mxGeometry relative="1" as="geometry"/></mxCell><mxCell id="92" value="" style="rounded=0;whiteSpace=wrap;html=1;" vertex="1" parent="23"><mxGeometry x="17" y="550" width="166" height="160" as="geometry"/></mxCell><mxCell id="90" value="" style="rounded=0;whiteSpace=wrap;html=1;" vertex="1" parent="23"><mxGeometry x="17" y="340" width="166" height="180" as="geometry"/></mxCell><mxCell id="150" style="edgeStyle=none;html=1;exitX=0.5;exitY=1;exitDx=0;exitDy=0;" edge="1" parent="23" source="88" target="90"><mxGeometry relative="1" as="geometry"/></mxCell><mxCell id="88" value="" style="rounded=0;whiteSpace=wrap;html=1;" vertex="1" parent="23"><mxGeometry x="27" y="30" width="146" height="180" as="geometry"/></mxCell><mxCell id="24" value="优化作品编辑器后台布局和代码结构" style="rounded=1;whiteSpace=wrap;html=1;" vertex="1" parent="23"><mxGeometry x="40" y="364" width="120" height="60" as="geometry"/></mxCell><mxCell id="33" value="优化了任务队列和进程管理器, 可以更好地生成作品" style="rounded=1;whiteSpace=wrap;html=1;" vertex="1" parent="23"><mxGeometry x="40" y="90" width="120" height="60" as="geometry"/></mxCell><mxCell id="44" value="平面编辑器和平面编辑逻辑" style="rounded=1;whiteSpace=wrap;html=1;" vertex="1" parent="23"><mxGeometry x="40" y="774" width="120" height="60" as="geometry"/></mxCell><mxCell id="46" value="模型编辑器和模型编辑逻辑" style="rounded=1;whiteSpace=wrap;html=1;" vertex="1" parent="23"><mxGeometry x="40" y="440" width="120" height="60" as="geometry"/></mxCell><mxCell id="35" value="优化全景编辑器和全景编辑逻辑" style="rounded=1;whiteSpace=wrap;html=1;" vertex="1" parent="23"><mxGeometry x="40" y="606" width="120" height="60" as="geometry"/></mxCell><mxCell id="70" style="edgeStyle=none;html=1;exitX=0.5;exitY=1;exitDx=0;exitDy=0;" edge="1" parent="6" source="25" target="14"><mxGeometry relative="1" as="geometry"/></mxCell><mxCell id="49" value="新版微沙盘" style="swimlane;" vertex="1" parent="6"><mxGeometry x="761" y="10" width="200" height="1480" as="geometry"/></mxCell><mxCell id="170" value="" style="rounded=0;whiteSpace=wrap;html=1;" vertex="1" parent="49"><mxGeometry x="27" y="30" width="146" height="180" as="geometry"/></mxCell><mxCell id="146" value="" style="rounded=0;whiteSpace=wrap;html=1;" vertex="1" parent="49"><mxGeometry x="27" y="1090" width="146" height="140" as="geometry"/></mxCell><mxCell id="152" style="edgeStyle=none;html=1;exitX=0.5;exitY=1;exitDx=0;exitDy=0;entryX=0.5;entryY=0;entryDx=0;entryDy=0;" edge="1" parent="49" source="145" target="146"><mxGeometry relative="1" as="geometry"/></mxCell><mxCell id="145" value="" style="rounded=0;whiteSpace=wrap;html=1;" vertex="1" parent="49"><mxGeometry x="27" y="940" width="146" height="100" as="geometry"/></mxCell><mxCell id="50" value="调整新版微沙盘作品加载逻辑" style="rounded=1;whiteSpace=wrap;html=1;" vertex="1" parent="49"><mxGeometry x="40" y="960" width="120" height="60" as="geometry"/></mxCell><mxCell id="53" value="开始微沙盘用户及用户即时系统搭建" style="rounded=1;whiteSpace=wrap;html=1;" vertex="1" parent="49"><mxGeometry x="40" y="1120" width="120" height="60" as="geometry"/></mxCell><mxCell id="169" value="带看功能开始" style="rounded=1;whiteSpace=wrap;html=1;" vertex="1" parent="49"><mxGeometry x="40" y="90" width="120" height="60" as="geometry"/></mxCell><mxCell id="63" value="时间轴" style="swimlane;" vertex="1" parent="6"><mxGeometry x="30" y="10" width="200" height="1480" as="geometry"/></mxCell><mxCell id="79" style="edgeStyle=none;html=1;exitX=0.5;exitY=1;exitDx=0;exitDy=0;" edge="1" parent="63" source="57" target="59"><mxGeometry relative="1" as="geometry"/></mxCell><mxCell id="57" value="六月第四周" style="rounded=1;whiteSpace=wrap;html=1;" vertex="1" parent="63"><mxGeometry x="31" y="1230" width="120" height="60" as="geometry"/></mxCell><mxCell id="15" value="五月第二周" style="rounded=1;whiteSpace=wrap;html=1;" vertex="1" parent="63"><mxGeometry x="31" y="450" width="120" height="60" as="geometry"/></mxCell><mxCell id="16" value="五月第三周" style="rounded=1;whiteSpace=wrap;html=1;" vertex="1" parent="63"><mxGeometry x="31" y="570" width="120" height="60" as="geometry"/></mxCell><mxCell id="73" style="edgeStyle=none;html=1;exitX=0.5;exitY=1;exitDx=0;exitDy=0;" edge="1" parent="63" source="15" target="16"><mxGeometry relative="1" as="geometry"/></mxCell><mxCell id="9" value="五月第四周" style="rounded=1;whiteSpace=wrap;html=1;" vertex="1" parent="63"><mxGeometry x="31" y="690" width="120" height="60" as="geometry"/></mxCell><mxCell id="74" style="edgeStyle=none;html=1;exitX=0.5;exitY=1;exitDx=0;exitDy=0;" edge="1" parent="63" source="16" target="9"><mxGeometry relative="1" as="geometry"/></mxCell><mxCell id="25" value="之前" style="rounded=1;whiteSpace=wrap;html=1;" vertex="1" parent="63"><mxGeometry x="31" y="90" width="120" height="60" as="geometry"/></mxCell><mxCell id="76" style="edgeStyle=none;html=1;exitX=0.5;exitY=1;exitDx=0;exitDy=0;" edge="1" parent="63" source="10" target="11"><mxGeometry relative="1" as="geometry"/></mxCell><mxCell id="10" value="六月第一周" style="rounded=1;whiteSpace=wrap;html=1;" vertex="1" parent="63"><mxGeometry x="31" y="810" width="120" height="60" as="geometry"/></mxCell><mxCell id="75" style="edgeStyle=none;html=1;exitX=0.5;exitY=1;exitDx=0;exitDy=0;" edge="1" parent="63" source="9" target="10"><mxGeometry relative="1" as="geometry"/></mxCell><mxCell id="11" value="六月第二周" style="rounded=1;whiteSpace=wrap;html=1;" vertex="1" parent="63"><mxGeometry x="31" y="949" width="120" height="60" as="geometry"/></mxCell><mxCell id="78" style="edgeStyle=none;html=1;exitX=0.5;exitY=1;exitDx=0;exitDy=0;entryX=0.5;entryY=0;entryDx=0;entryDy=0;" edge="1" parent="63" source="13" target="57"><mxGeometry relative="1" as="geometry"/></mxCell><mxCell id="13" value="六月第三周" style="rounded=1;whiteSpace=wrap;html=1;" vertex="1" parent="63"><mxGeometry x="31" y="1100" width="120" height="60" as="geometry"/></mxCell><mxCell id="77" style="edgeStyle=none;html=1;exitX=0.5;exitY=1;exitDx=0;exitDy=0;" edge="1" parent="63" source="11" target="13"><mxGeometry relative="1" as="geometry"/></mxCell><mxCell id="59" value="七月及之后" style="rounded=1;whiteSpace=wrap;html=1;" vertex="1" parent="63"><mxGeometry x="31" y="1370" width="120" height="60" as="geometry"/></mxCell><mxCell id="157" style="edgeStyle=none;html=1;entryX=0;entryY=0.5;entryDx=0;entryDy=0;" edge="1" parent="6" source="22" target="90"><mxGeometry relative="1" as="geometry"/></mxCell><mxCell id="158" style="edgeStyle=none;html=1;entryX=0;entryY=0.5;entryDx=0;entryDy=0;" edge="1" parent="6" source="84" target="145"><mxGeometry relative="1" as="geometry"/></mxCell><mxCell id="162" style="edgeStyle=none;html=1;entryX=0;entryY=0.5;entryDx=0;entryDy=0;" edge="1" parent="6" source="93" target="145"><mxGeometry relative="1" as="geometry"/></mxCell><mxCell id="167" value="带看功能" style="swimlane;" vertex="1" parent="6"><mxGeometry x="1000" y="10" width="200" height="1480" as="geometry"/></mxCell><mxCell id="176" style="edgeStyle=none;html=1;entryX=0.5;entryY=0;entryDx=0;entryDy=0;" edge="1" parent="167" source="174" target="62"><mxGeometry relative="1" as="geometry"/></mxCell><mxCell id="174" value="" style="rounded=0;whiteSpace=wrap;html=1;" vertex="1" parent="167"><mxGeometry x="23.5" y="550" width="153" height="170" as="geometry"/></mxCell><mxCell id="89" value="" style="rounded=0;whiteSpace=wrap;html=1;" vertex="1" parent="167"><mxGeometry x="27" y="30" width="146" height="180" as="geometry"/></mxCell><mxCell id="168" value="编写krpano远程控制插件" style="rounded=1;whiteSpace=wrap;html=1;" vertex="1" parent="167"><mxGeometry x="40" y="610" width="120" height="60" as="geometry"/></mxCell><mxCell id="54" value="搭建了 websocket 服务器,和 websocket 服务" style="rounded=1;whiteSpace=wrap;html=1;" vertex="1" parent="167"><mxGeometry x="40" y="50" width="120" height="60" as="geometry"/></mxCell><mxCell id="55" value="搭建了 webrtc 服务器和 webrtc 服务" style="rounded=1;whiteSpace=wrap;html=1;" vertex="1" parent="167"><mxGeometry x="40" y="130" width="120" height="60" as="geometry"/></mxCell><mxCell id="171" style="edgeStyle=none;html=1;exitX=0.5;exitY=1;exitDx=0;exitDy=0;entryX=0.5;entryY=0;entryDx=0;entryDy=0;" edge="1" parent="167" source="89" target="174"><mxGeometry relative="1" as="geometry"><mxPoint x="100.28571428571468" y="440" as="targetPoint"/></mxGeometry></mxCell><mxCell id="62" value="带看功能" style="rounded=1;whiteSpace=wrap;html=1;" vertex="1" parent="167"><mxGeometry x="40" y="1240" width="120" height="60" as="geometry"/></mxCell><mxCell id="173" style="edgeStyle=none;html=1;exitX=1;exitY=0.5;exitDx=0;exitDy=0;" edge="1" parent="6" source="170" target="89"><mxGeometry relative="1" as="geometry"/></mxCell><mxCell id="178" style="edgeStyle=none;html=1;entryX=0;entryY=0.5;entryDx=0;entryDy=0;" edge="1" parent="6" source="85" target="146"><mxGeometry relative="1" as="geometry"/></mxCell><mxCell id="179" style="edgeStyle=none;html=1;entryX=0;entryY=0.5;entryDx=0;entryDy=0;" edge="1" parent="6" source="146" target="62"><mxGeometry relative="1" as="geometry"/></mxCell></root></mxGraphModel></diagram></mxfile>